<svg xmlns="http://www.w3.org/2000/svg" viewBox="0 0 100 100">
  <defs>
    <linearGradient id="g" x1="0%" y1="0%" x2="100%" y2="100%">
      <stop offset="0%" style="stop-color:#25D366"/>
      <stop offset="100%" style="stop-color:#128C7E"/>
    </linearGradient>
  </defs>
  <circle cx="50" cy="50" r="48" fill="url(#g)"/>
  <path d="M50 20c-16.57 0-30 12.54-30 28.01 0 5.24 1.52 10.12 4.13 14.28L20 80l18.38-4.82A30.3 30.3 0 0050 76.02C66.57 76.02 80 63.48 80 47.01 80 32.54 66.57 20 50 20zm0 50.02c-4.53 0-8.88-1.16-12.72-3.35l-.91-.54-9.44 2.48 2.52-9.22-.59-.94A23.72 23.72 0 0126 47.01C26 34.64 36.75 24.5 50 24.5S74 34.64 74 47.01 63.25 70.02 50 70.02z" fill="white"/>
  <path d="M63.36 54.14c-.73-.37-4.33-2.14-5-2.38-.67-.24-1.16-.37-1.65.37-.49.73-1.89 2.38-2.32 2.87-.43.49-.85.55-1.58.18-.73-.37-3.09-1.14-5.89-3.63-2.18-1.94-3.65-4.33-4.08-5.06-.43-.73-.05-1.13.32-1.5.33-.33.73-.86 1.1-1.3.37-.43.49-.73.73-1.22.24-.49.12-.92-.06-1.29-.18-.37-1.65-3.97-2.26-5.44-.6-1.43-1.2-1.23-1.65-1.26-.43-.02-.92-.02-1.41-.02s-1.29.18-1.96.92c-.67.73-2.56 2.5-2.56 6.1s2.62 7.08 2.99 7.57c.37.49 5.16 7.87 12.5 11.04 1.75.75 3.11 1.2 4.17 1.54 1.75.56 3.34.48 4.6.29 1.4-.21 4.33-1.77 4.94-3.48.61-1.71.61-3.18.43-3.48-.18-.31-.67-.49-1.4-.86z" fill="white"/>
</svg>